<?xml version="1.0" encoding="utf-8"?>
<!-- Generator: Adobe Illustrator 24.1.1, SVG Export Plug-In . SVG Version: 6.00 Build 0)  -->
<svg version="1.1" id="レイヤー_1" xmlns="http://www.w3.org/2000/svg" xmlns:xlink="http://www.w3.org/1999/xlink" x="0px"
	 y="0px" viewBox="0 0 27 27" style="enable-background:new 0 0 27 27;" xml:space="preserve">
<style type="text/css">
	.st0{display:none;}
	.st1{display:inline;fill-rule:evenodd;clip-rule:evenodd;fill:#C4C9CC;}
	.st2{display:inline;fill-rule:evenodd;clip-rule:evenodd;fill:#FFFFFF;}
	.st3{display:inline;fill:#C4C9CC;}
	.st4{display:inline;fill:#FFFFFF;}
	.st5{display:none;fill:#C4C9CC;}
	.st6{fill:#C4C9CC;}
</style>
<g id="Icon_x5F_qr_x5F_gray" class="st0">
	<path class="st1" d="M-1.57,50.32h16.11H-1.57L-1.57,50.32z M1.93,37.58h8.49v8.49H1.93V37.58L1.93,37.58L1.93,37.58z M22.09,30.15
		h4.24v15.92h-4.24V30.15L22.09,30.15L22.09,30.15z M-5.5,53.5h24.41V29.09H-5.5V53.5L-5.5,53.5L-5.5,53.5z M-1.26,49.26V33.34
		h15.92v15.92L-1.26,49.26L-1.26,49.26L-1.26,49.26z M22.09,49.26h8.49v4.24h-8.49L22.09,49.26L22.09,49.26L22.09,49.26z
		 M42.26,37.58h4.24v4.24h-4.24V37.58L42.26,37.58L42.26,37.58z M34.83,29.09H46.5v4.24H34.83V29.09L34.83,29.09z M30.58,8.93h8.49
		v8.49h-8.49V8.93L30.58,8.93z M46.5,1.5H22.09v24.41H46.5V1.5L46.5,1.5L46.5,1.5z M42.25,21.66H26.34V5.74h15.92L42.25,21.66
		L42.25,21.66z M-5.5,25.91h24.41V1.5H-5.5V25.91L-5.5,25.91z M-1.26,5.74h15.92v15.92H-1.26V5.74L-1.26,5.74z M42.26,49.26h-7.43
		v4.24H46.5v-7.43h-4.24v3.77l0,0V49.26z M30.58,37.58v8.49h8.49v-4.24h-4.24v-4.24H30.58L30.58,37.58L30.58,37.58z M1.93,8.93h8.49
		v8.49H1.93V8.93L1.93,8.93L1.93,8.93z"/>
</g>
<g id="Icon_x5F_qr_x5F_white" class="st0">
	<path class="st2" d="M-1.57,50.32h16.11H-1.57L-1.57,50.32z M1.93,37.58h8.49v8.49H1.93V37.58L1.93,37.58L1.93,37.58z M22.09,30.15
		h4.24v15.92h-4.24V30.15L22.09,30.15L22.09,30.15z M-5.5,53.5h24.41V29.09H-5.5V53.5L-5.5,53.5L-5.5,53.5z M-1.26,49.26V33.34
		h15.92v15.92L-1.26,49.26L-1.26,49.26L-1.26,49.26z M22.09,49.26h8.49v4.24h-8.49L22.09,49.26L22.09,49.26L22.09,49.26z
		 M42.26,37.58h4.24v4.24h-4.24V37.58L42.26,37.58L42.26,37.58z M34.83,29.09H46.5v4.24H34.83V29.09L34.83,29.09z M30.58,8.93h8.49
		v8.49h-8.49V8.93L30.58,8.93z M46.5,1.5H22.09v24.41H46.5V1.5L46.5,1.5L46.5,1.5z M42.25,21.66H26.34V5.74h15.92L42.25,21.66
		L42.25,21.66z M-5.5,25.91h24.41V1.5H-5.5V25.91L-5.5,25.91z M-1.26,5.74h15.92v15.92H-1.26V5.74L-1.26,5.74z M42.26,49.26h-7.43
		v4.24H46.5v-7.43h-4.24v3.77l0,0V49.26z M30.58,37.58v8.49h8.49v-4.24h-4.24v-4.24H30.58L30.58,37.58L30.58,37.58z M1.93,8.93h8.49
		v8.49H1.93V8.93L1.93,8.93L1.93,8.93z"/>
</g>
<g id="Icon_x5F_copy_x5F_gray" class="st0">
	<path class="st3" d="M3.47,10.47H-5.5V53.5h43.03v-8.97h8.97V1.5H3.47V10.47z M33.95,49.91H-1.91V14.05h35.86V49.91z M42.91,5.09
		v35.86h-5.38V10.47H7.05V5.09H42.91z"/>
	<polygon class="st3" points="14.22,41.84 17.81,41.84 17.81,33.78 25.88,33.78 25.88,30.19 17.81,30.19 17.81,22.12 14.22,22.12 
		14.22,30.19 6.16,30.19 6.16,33.78 14.22,33.78 	"/>
</g>
<g id="Icon_x5F_copy_x5F_white" class="st0">
	<path class="st4" d="M3.47,10.47H-5.5V53.5h43.03v-8.97h8.97V1.5H3.47V10.47z M33.95,49.91H-1.91V14.05h35.86V49.91z M42.91,5.09
		v35.86h-5.38V10.47H7.05V5.09H42.91z"/>
	<polygon class="st4" points="14.22,41.84 17.81,41.84 17.81,33.78 25.88,33.78 25.88,30.19 17.81,30.19 17.81,22.12 14.22,22.12 
		14.22,30.19 6.16,30.19 6.16,33.78 14.22,33.78 	"/>
</g>
<polygon id="Icon_x5F_pulldown_x5F_gray" class="st5" points="11,15.16 -3.11,1 -6,3.93 11,21 28,3.93 25.11,1 "/>
<g id="Icon_x5F_close_x5F_gray">
	<g>
		<polygon class="st6" points="26.5,3.17 23.83,0.5 13.5,10.83 3.17,0.5 0.5,3.17 10.83,13.5 0.5,23.83 3.17,26.5 13.5,16.17 
			23.83,26.5 26.5,23.83 16.17,13.5 		"/>
	</g>
</g>
</svg>
